# File created by Blade
# Date/Time:  Tue Sep 30 19:11:22 2014
#---------------------------------------------------------
:version 1.10
:name HOM
:units
  mass 1.0
  length 1.000000
  angle deg
:documentation
     Acclaim Skeleton File
:root
   axis xyz
   order TX TY TZ RX RY RZ
   position 0.000000 0.000000 0.000000
   orientation 0 0 0
:bonedata
   begin
      id 1
      name Spine_dum
      direction 0.000000 1.000000 0.000000
      length 7.508948
      axis 0.0 0.0 0.0 xyz
   end
   begin
      id 2
      name LeftUpLeg_dum
      direction 1.000000 0.000000 0.000000
      length 3.000560
      axis 0.0 0.0 0.0 xyz
   end
   begin
      id 3
      name RightUpLeg_dum
      direction -1.000000 0.000000 0.000000
      length 3.000560
      axis 0.0 0.0 0.0 xyz
   end
   begin
      id 4
      name Spine
      direction 0.000000 1.000000 0.000000
      length 0.000000
      axis 0.0 0.0 0.0 xyz
      dof rx ry rz
   end
   begin
      id 5
      name Spine_dum1
      direction 0.000000 1.000000 0.000000
      length 13.861154
      axis 0.0 0.0 0.0 xyz
   end
   begin
      id 6
      name Spine_dum2
      direction 0.000000 1.000000 0.000000
      length 8.204781
      axis 0.0 0.0 0.0 xyz
   end
   begin
      id 7
      name Spine_dum3
      direction 0.000000 1.000000 0.000000
      length 8.204781
      axis 0.0 0.0 0.0 xyz
   end
   begin
      id 8
      name Head
      direction 0.000000 1.000000 0.000000
      length 4.527550
      axis 0.0 0.0 0.0 xyz
      dof rx ry rz
   end
   begin
      id 9
      name LeftShoulder
      direction 1.000000 0.000000 0.000000
      length 6.635956
      axis 0.0 0.0 -90.0 xyz
      dof rx ry rz
   end
   begin
      id 10
      name LeftArm
      direction 1.000000 0.000000 0.000000
      length 10.274218
      axis 0.0 0.0 -90.0 xyz
      dof rx ry rz
   end
   begin
      id 11
      name LeftForeArm
      direction 1.000000 0.000000 0.000000
      length 8.522147
      axis 0.0 0.0 -90.0 xyz
      dof ry rz rx
   end
   begin
      id 12
      name LeftHand
      direction 0.000000 0.000000 0.000000
      length 0.000000
      axis 0.0 0.0 -90.0 xyz
      dof rx ry rz
   end
   begin
      id 13
      name LeftHand_dum1
      direction 0.000000 0.000000 0.000000
      length 0.000000
      axis 0.0 0.0 -90.0 xyz
   end
   begin
      id 14
      name LeftHand_dum2
      direction 1.000000 0.000000 0.000000
      length 3.937000
      axis 0.0 0.0 -90.0 xyz
   end
   begin
      id 15
      name LeftHandThumb1
      direction 0.000000 0.000000 1.000000
      length 3.937000
      axis 0.0 0.0 -90.0 xyz
      dof rx rz ry
   end
   begin
      id 16
      name RightShoulder
      direction -1.000000 0.000000 0.000000
      length 6.635956
      axis 0.0 0.0 90.0 xyz
      dof rx ry rz
   end
   begin
      id 17
      name RightArm
      direction -1.000000 0.000000 0.000000
      length 10.274218
      axis 0.0 0.0 90.0 xyz
      dof rx ry rz
   end
   begin
      id 18
      name RightForeArm
      direction -1.000000 0.000000 0.000000
      length 8.522147
      axis 0.0 0.0 90.0 xyz
      dof ry rz rx
   end
   begin
      id 19
      name RightHand
      direction 0.000000 0.000000 0.000000
      length 0.000000
      axis 0.0 0.0 90.0 xyz
      dof rx ry rz
   end
   begin
      id 20
      name RightHand_dum1
      direction 0.000000 0.000000 0.000000
      length 0.000000
      axis 0.0 0.0 90.0 xyz
   end
   begin
      id 21
      name RightHand_dum2
      direction -1.000000 0.000000 0.000000
      length 3.937000
      axis 0.0 0.0 90.0 xyz
   end
   begin
      id 22
      name RightHandThumb1
      direction 0.000000 0.000000 1.000000
      length 3.937000
      axis 0.0 0.0 90.0 xyz
      dof rx rz ry
   end
   begin
      id 23
      name LeftUpLeg
      direction 0.000000 -1.000000 0.000000
      length 16.490845
      axis 0.0 0.0 0.0 xyz
      dof rx ry rz
   end
   begin
      id 24
      name LeftLeg
      direction 0.000000 -1.000000 0.000000
      length 14.556576
      axis 0.0 0.0 0.0 xyz
      dof rx ry rz
   end
   begin
      id 25
      name LeftFoot
      direction 0.000000 -0.258819 0.965926
      length 4.831116
      axis 15.0 0.0 0.0 xyz
      dof rx ry rz
   end
   begin
      id 26
      name LeftToeBase
      direction 0.000000 0.000000 1.000000
      length 2.952750
      axis 0.0 0.0 0.0 xyz
      dof rx ry rz
   end
   begin
      id 27
      name RightUpLeg
      direction 0.000000 -1.000000 0.000000
      length 16.490845
      axis 0.0 0.0 0.0 xyz
      dof rx ry rz
   end
   begin
      id 28
      name RightLeg
      direction 0.000000 -1.000000 0.000000
      length 14.556576
      axis 0.0 0.0 0.0 xyz
      dof rx ry rz
   end
   begin
      id 29
      name RightFoot
      direction 0.000000 -0.258819 0.965926
      length 4.831116
      axis 15.0 0.0 0.0 xyz
      dof rx ry rz
   end
   begin
      id 30
      name RightToeBase
      direction 0.000000 0.000000 1.000000
      length 2.952750
      axis 0.0 0.0 0.0 xyz
      dof rx ry rz
   end
:hierarchy
   begin
      root Spine_dum LeftUpLeg_dum RightUpLeg_dum
      Spine_dum Spine
      LeftUpLeg_dum LeftUpLeg
      RightUpLeg_dum RightUpLeg
      Spine Spine_dum1 Spine_dum2 Spine_dum3
      Spine_dum1 Head
      Spine_dum2 LeftShoulder
      Spine_dum3 RightShoulder
      LeftShoulder LeftArm
      LeftArm LeftForeArm
      LeftForeArm LeftHand
      LeftHand LeftHand_dum1 LeftHand_dum2
      LeftHand_dum1 LeftHandThumb1
      RightShoulder RightArm
      RightArm RightForeArm
      RightForeArm RightHand
      RightHand RightHand_dum1 RightHand_dum2
      RightHand_dum1 RightHandThumb1
      LeftUpLeg LeftLeg
      LeftLeg LeftFoot
      LeftFoot LeftToeBase
      RightUpLeg RightLeg
      RightLeg RightFoot
      RightFoot RightToeBase
   end

# File created by Blade
# Date/Time:  Thu Sep 25 14:26:36 2014
# Frame Rate: 120.000 fps
#------------------------------------------------------
:FULLY-SPECIFIED
:DEGREES
289
root -3.465184 32.702697 -2.224103 6.480660 44.453179 1.880522
Spine -3.117225 13.482980 3.001925
Head 11.768978 11.850754 6.601694
LeftShoulder -16.723305 24.854928 7.982508
LeftArm 17.147501 32.417824 -77.977827
LeftForeArm 4.433484 -0.000000 19.465275
LeftHand -25.244647 -0.000000 -9.100352
LeftHandThumb1 -26.253704 0.000000 33.147579
RightShoulder -18.713624 10.349518 -24.682307
RightArm -15.839196 -32.707381 99.137528
RightForeArm -21.733028 -0.000000 24.652400
RightHand -5.589411 0.000000 10.263147
RightHandThumb1 -24.326973 -0.000000 -32.862282
LeftUpLeg -14.642075 19.918205 -2.959390
LeftLeg 18.490214 -0.000000 -0.000000
LeftFoot -21.688567 19.753032 -21.484603
LeftToeBase -0.229174 -0.000000 0.000000
RightUpLeg -2.273412 -25.031837 3.284753
RightLeg 4.234273 -0.000000 -0.000000
RightFoot -13.120328 -26.611859 2.295429
RightToeBase 1.740868 -0.000000 -0.000000
290
root -3.388952 32.695567 -2.224498 6.297747 45.120089 1.797414
Spine -3.144302 13.545783 3.040274
Head 12.089069 11.512607 6.656252
LeftShoulder -16.812012 24.918197 8.029487
LeftArm 17.255732 32.194069 -77.735583
LeftForeArm 4.347534 -0.000000 19.729398
LeftHand -25.300244 -0.000000 -8.924812
LeftHandThumb1 -26.253704 0.000000 33.147579
RightShoulder -18.744163 10.308775 -24.615221
RightArm -15.703374 -33.299186 99.048118
RightForeArm -21.734187 -0.000000 25.133851
RightHand -5.444626 -0.000000 10.116449
RightHandThumb1 -24.326973 -0.000000 -32.862282
LeftUpLeg -14.179691 19.764556 -2.912708
LeftLeg 17.779982 -0.000000 -0.000000
LeftFoot -21.032865 19.582001 -21.052568
LeftToeBase 1.680127 -0.000000 -0.000000
RightUpLeg -2.108861 -25.262219 3.200253
RightLeg 4.481630 -0.000000 -0.000000
RightFoot -13.333924 -26.926707 2.585557
RightToeBase 1.737143 -0.000000 -0.000000
291
root -3.316640 32.688445 -2.228169 6.137392 45.807329 1.716716
Spine -3.195528 13.558231 3.043451
Head 12.407085 11.216161 6.769641
LeftShoulder -16.877724 25.021686 8.089304
LeftArm 17.372649 31.764193 -77.557818
LeftForeArm 4.265281 -0.000000 20.029238
LeftHand -25.373283 -0.000000 -8.650118
LeftHandThumb1 -26.253704 0.000000 33.147579
RightShoulder -18.773238 10.276283 -24.541261
RightArm -15.501918 -33.753449 98.918073
RightForeArm -21.699455 -0.000000 25.580574
RightHand -5.522567 -0.000000 10.163606
RightHandThumb1 -24.326973 -0.000000 -32.862282
LeftUpLeg -13.750441 19.446888 -2.836008
LeftLeg 17.106666 -0.000000 -0.000000
LeftFoot -20.663210 19.443346 -20.566468
LeftToeBase 3.067188 -0.000000 -0.000000
RightUpLeg -1.989150 -25.513010 3.130696
RightLeg 4.757366 -0.000000 -0.000000
RightFoot -13.546475 -27.257703 2.870889
RightToeBase 1.749468 -0.000000 -0.000000
292
root -3.239448 32.681866 -2.232883 5.988297 46.478477 1.647193
Spine -3.246852 13.595822 3.031214
Head 12.724199 10.864534 6.901260
LeftShoulder -16.940808 25.068342 8.137632
LeftArm 17.452747 31.320263 -77.391599
LeftForeArm 4.325093 -0.000000 20.325725
LeftHand -25.350518 -0.000000 -8.338778
LeftHandThumb1 -26.253704 0.000000 33.147579
RightShoulder -18.810140 10.256662 -24.478096
RightArm -15.352459 -34.190857 98.778284
RightForeArm -21.569331 -0.000000 26.030714
RightHand -5.419538 -0.000000 10.071901
RightHandThumb1 -24.326973 -0.000000 -32.862282
LeftUpLeg -13.301434 19.013138 -2.755534
LeftLeg 16.467565 -0.000000 -0.000000
LeftFoot -20.409534 19.262844 -20.520340
LeftToeBase 4.255080 -0.000000 -0.000000
RightUpLeg -1.967201 -25.935619 3.039424
RightLeg 5.248239 -0.000000 -0.000000
RightFoot -13.865256 -27.372381 3.156883
RightToeBase 1.745412 -0.000000 -0.000000
